<svg width="20" height="20" viewBox="0 0 20 20" fill="none" xmlns="http://www.w3.org/2000/svg">
<path d="M4.61341 18.2383C4.74822 18.3084 4.89957 18.3405 5.05123 18.3311C5.20289 18.3217 5.34913 18.2712 5.47425 18.185L16.3076 10.685C16.4183 10.6083 16.5087 10.5059 16.5712 10.3866C16.6337 10.2673 16.6663 10.1347 16.6663 9.99998C16.6663 9.86531 16.6337 9.73265 16.5712 9.61335C16.5087 9.49405 16.4183 9.39168 16.3076 9.31498L5.47425 1.81498C5.34923 1.72848 5.20292 1.67782 5.05118 1.6685C4.89943 1.65918 4.74803 1.69155 4.61336 1.7621C4.47869 1.83265 4.36588 1.9387 4.28716 2.06877C4.20844 2.19883 4.1668 2.34795 4.16675 2.49998V17.5C4.16672 17.6521 4.20833 17.8013 4.28707 17.9315C4.36581 18.0616 4.47867 18.1677 4.61341 18.2383Z" fill="#45BF55"/>
</svg>
