<svg width="60" height="60" viewBox="0 0 60 60" fill="none" xmlns="http://www.w3.org/2000/svg">
<path d="M17.4224 17.4225C17.5966 17.2479 17.8035 17.1093 18.0313 17.0148C18.2591 16.9203 18.5033 16.8716 18.7499 16.8716C18.9966 16.8716 19.2408 16.9203 19.4686 17.0148C19.6964 17.1093 19.9033 17.2479 20.0774 17.4225L29.9999 27.3487L39.9224 17.4225C40.0968 17.2482 40.3037 17.1099 40.5315 17.0155C40.7593 16.9212 41.0034 16.8726 41.2499 16.8726C41.4965 16.8726 41.7406 16.9212 41.9684 17.0155C42.1961 17.1099 42.4031 17.2482 42.5774 17.4225C42.7518 17.5968 42.8901 17.8038 42.9844 18.0316C43.0787 18.2593 43.1273 18.5035 43.1273 18.75C43.1273 18.9965 43.0787 19.2407 42.9844 19.4684C42.8901 19.6962 42.7518 19.9032 42.5774 20.0775L32.6512 30L42.5774 39.9225C42.7518 40.0968 42.8901 40.3038 42.9844 40.5316C43.0787 40.7593 43.1273 41.0035 43.1273 41.25C43.1273 41.4965 43.0787 41.7407 42.9844 41.9684C42.8901 42.1962 42.7518 42.4032 42.5774 42.5775C42.4031 42.7518 42.1961 42.8901 41.9684 42.9845C41.7406 43.0788 41.4965 43.1274 41.2499 43.1274C41.0034 43.1274 40.7593 43.0788 40.5315 42.9845C40.3037 42.8901 40.0968 42.7518 39.9224 42.5775L29.9999 32.6512L20.0774 42.5775C19.9031 42.7518 19.6961 42.8901 19.4684 42.9845C19.2406 43.0788 18.9965 43.1274 18.7499 43.1274C18.5034 43.1274 18.2593 43.0788 18.0315 42.9845C17.8037 42.8901 17.5968 42.7518 17.4224 42.5775C17.2481 42.4032 17.1098 42.1962 17.0155 41.9684C16.9211 41.7407 16.8726 41.4965 16.8726 41.25C16.8726 41.0035 16.9211 40.7593 17.0155 40.5316C17.1098 40.3038 17.2481 40.0968 17.4224 39.9225L27.3487 30L17.4224 20.0775C17.2478 19.9033 17.1093 19.6964 17.0148 19.4686C16.9202 19.2408 16.8716 18.9966 16.8716 18.75C16.8716 18.5034 16.9202 18.2592 17.0148 18.0314C17.1093 17.8036 17.2478 17.5967 17.4224 17.4225Z" fill="#131313"/>
</svg>
