<svg width="15" height="15" viewBox="0 0 15 15" fill="none" xmlns="http://www.w3.org/2000/svg">
<path d="M1.53376 4.96217C1.70957 4.78642 1.94799 4.68768 2.19658 4.68768C2.44517 4.68768 2.68358 4.78642 2.85939 4.96217L7.50001 9.6028L12.1406 4.96217C12.3175 4.7914 12.5543 4.6969 12.8001 4.69904C13.0459 4.70117 13.281 4.79977 13.4548 4.97359C13.6287 5.14741 13.7273 5.38255 13.7294 5.62836C13.7315 5.87417 13.637 6.11098 13.4663 6.2878L8.16283 11.5912C7.98702 11.767 7.74861 11.8657 7.50001 11.8657C7.25142 11.8657 7.01301 11.767 6.8372 11.5912L1.53376 6.2878C1.35801 6.11199 1.25928 5.87357 1.25928 5.62498C1.25928 5.37639 1.35801 5.13798 1.53376 4.96217Z" fill="#3CA64A"/>
</svg>
