<svg width="16" height="16" viewBox="0 0 16 16" fill="none" xmlns="http://www.w3.org/2000/svg">
<path fill-rule="evenodd" clip-rule="evenodd" d="M7.99989 9.77777C8.47139 9.77777 8.92357 9.59047 9.25697 9.25707C9.59037 8.92367 9.77767 8.47149 9.77767 7.99999C9.77767 7.5285 9.59037 7.07631 9.25697 6.74291C8.92357 6.40952 8.47139 6.22222 7.99989 6.22222C7.5284 6.22222 7.07621 6.40952 6.74281 6.74291C6.40942 7.07631 6.22211 7.5285 6.22211 7.99999C6.22211 8.47149 6.40942 8.92367 6.74281 9.25707C7.07621 9.59047 7.5284 9.77777 7.99989 9.77777ZM7.99989 11.5555C8.94288 11.5555 9.84725 11.1809 10.514 10.5142C11.1808 9.84735 11.5554 8.94298 11.5554 7.99999C11.5554 7.057 11.1808 6.15263 10.514 5.48584C9.84725 4.81904 8.94288 4.44444 7.99989 4.44444C7.0569 4.44444 6.15253 4.81904 5.48573 5.48584C4.81894 6.15263 4.44434 7.057 4.44434 7.99999C4.44434 8.94298 4.81894 9.84735 5.48573 10.5142C6.15253 11.1809 7.0569 11.5555 7.99989 11.5555V11.5555ZM11.1146 1.51999C11.4484 1.35309 11.8262 1.29547 12.1946 1.3553C12.563 1.41513 12.9032 1.58937 13.167 1.85333L14.1466 2.83288C14.4105 3.09671 14.5848 3.43691 14.6446 3.80529C14.7044 4.17366 14.6468 4.55152 14.4799 4.88533L14.1377 5.56977C14.0322 5.78065 13.8472 5.94098 13.6235 6.01549C13.3998 6.09001 13.1557 6.0726 12.9448 5.9671C12.7339 5.86161 12.5736 5.67666 12.4991 5.45295C12.4245 5.22924 12.442 4.98509 12.5474 4.77421L12.8897 4.08977L11.9101 3.1111L11.2257 3.45333C11.015 3.55653 10.7722 3.57231 10.55 3.49723C10.3278 3.42214 10.1442 3.26227 10.0394 3.05246C9.93455 2.84265 9.91688 2.59991 9.99023 2.37713C10.0636 2.15434 10.222 1.96958 10.431 1.8631L11.1154 1.52088L11.1146 1.51999Z" fill="#131313"/>
<path fill-rule="evenodd" clip-rule="evenodd" d="M13.0171 4.34489C13.1257 4.30209 13.2417 4.28112 13.3584 4.28316C13.4751 4.28519 13.5903 4.3102 13.6973 4.35676C13.8044 4.40331 13.9012 4.4705 13.9823 4.55448C14.0634 4.63846 14.1272 4.7376 14.1699 4.84622L14.5788 5.88266C14.6216 5.99128 14.6426 6.10726 14.6405 6.22398C14.6385 6.34071 14.6135 6.45588 14.5669 6.56294C14.5204 6.66999 14.4532 6.76683 14.3692 6.84792C14.2852 6.92901 14.1861 6.99277 14.0775 7.03555C13.9689 7.07833 13.8529 7.0993 13.7362 7.09726C13.6195 7.09522 13.5043 7.07021 13.3972 7.02366C13.2902 6.9771 13.1933 6.90992 13.1122 6.82594C13.0312 6.74196 12.9674 6.64284 12.9246 6.53422L12.5157 5.49777C12.4729 5.38916 12.452 5.27318 12.454 5.15645C12.456 5.03973 12.481 4.92455 12.5276 4.81749C12.5741 4.71043 12.6413 4.61359 12.7253 4.5325C12.8093 4.45141 12.9084 4.38766 13.0171 4.34489V4.34489Z" fill="#131313"/>
<path fill-rule="evenodd" clip-rule="evenodd" d="M14.7849 5.62044C15.1389 5.73855 15.4467 5.96505 15.6648 6.26785C15.8829 6.57065 16.0001 6.93439 16 7.30756V8.69245C16.0001 9.06561 15.8829 9.42935 15.6648 9.73215C15.4467 10.035 15.1389 10.2615 14.7849 10.3796L14.0587 10.6213C13.9479 10.6582 13.8309 10.6729 13.7145 10.6646C13.598 10.6563 13.4843 10.6251 13.3799 10.5729C13.2755 10.5206 13.1824 10.4483 13.1059 10.3601C13.0294 10.2719 12.9711 10.1694 12.9342 10.0587C12.8973 9.94789 12.8826 9.83093 12.8909 9.71447C12.8992 9.59801 12.9304 9.48433 12.9827 9.37991C13.0349 9.2755 13.1072 9.1824 13.1954 9.10593C13.2837 9.02945 13.3861 8.97111 13.4969 8.93422L14.2222 8.69333V7.30756L13.4969 7.06578C13.2732 6.99128 13.0882 6.83096 12.9827 6.62009C12.8771 6.40921 12.8597 6.16506 12.9342 5.94133C13.0087 5.71761 13.169 5.53264 13.3799 5.42712C13.5908 5.3216 13.8349 5.30417 14.0587 5.37867L14.7849 5.62044V5.62044Z" fill="#131313"/>
<path fill-rule="evenodd" clip-rule="evenodd" d="M14.1324 8.96265C14.2394 9.00923 14.3362 9.07643 14.4173 9.16042C14.4984 9.24441 14.5621 9.34355 14.6049 9.45218C14.6476 9.5608 14.6686 9.67679 14.6665 9.7935C14.6644 9.91022 14.6394 10.0254 14.5928 10.1324L14.1484 11.1547C14.1018 11.2617 14.0346 11.3585 13.9506 11.4396C13.8666 11.5207 13.7675 11.5844 13.6588 11.6271C13.4395 11.7135 13.1948 11.7092 12.9786 11.6151C12.8716 11.5685 12.7747 11.5013 12.6937 11.4173C12.6126 11.3333 12.5489 11.2342 12.5061 11.1256C12.4198 10.9062 12.4241 10.6615 12.5182 10.4453L12.9626 9.4231C13.0092 9.31605 13.0764 9.21923 13.1604 9.13816C13.2444 9.05708 13.3435 8.99335 13.4521 8.95059C13.5607 8.90784 13.6767 8.88689 13.7934 8.88896C13.9102 8.89103 14.0253 8.91607 14.1324 8.96265Z" fill="#131313"/>
<path fill-rule="evenodd" clip-rule="evenodd" d="M14.48 11.1147C14.6469 11.4485 14.7045 11.8263 14.6447 12.1947C14.5849 12.5631 14.4107 12.9033 14.1467 13.1671L13.1671 14.1467C12.9033 14.4106 12.5631 14.5849 12.1947 14.6447C11.8264 14.7045 11.4485 14.6469 11.1147 14.48L10.4302 14.1378C10.2194 14.0323 10.059 13.8473 9.98453 13.6236C9.91001 13.3999 9.92742 13.1558 10.0329 12.9449C10.1384 12.734 10.3234 12.5737 10.5471 12.4992C10.7708 12.4246 11.0149 12.442 11.2258 12.5475L11.9102 12.8898L12.8898 11.9102L12.5476 11.2258C12.4444 11.0151 12.4286 10.7723 12.5037 10.5501C12.5788 10.3279 12.7386 10.1443 12.9484 10.0395C13.1583 9.93465 13.401 9.91698 13.6238 9.99033C13.8466 10.0637 14.0313 10.2221 14.1378 10.4311L14.48 11.1155V11.1147Z" fill="#131313"/>
<path fill-rule="evenodd" clip-rule="evenodd" d="M11.6551 13.0169C11.7416 13.2362 11.7374 13.4808 11.6436 13.697C11.5497 13.9132 11.3739 14.0832 11.1547 14.1698L10.1173 14.5787C10.0087 14.6215 9.89272 14.6424 9.776 14.6404C9.65928 14.6383 9.5441 14.6133 9.43705 14.5668C9.32999 14.5202 9.23315 14.4531 9.15206 14.3691C9.07097 14.2851 9.00722 14.186 8.96443 14.0773C8.92165 13.9687 8.90068 13.8527 8.90272 13.736C8.90476 13.6193 8.92978 13.5041 8.97633 13.3971C9.02288 13.29 9.09007 13.1932 9.17404 13.1121C9.25802 13.031 9.35715 12.9672 9.46577 12.9245L10.5022 12.5156C10.6108 12.4728 10.7268 12.4518 10.8435 12.4538C10.9603 12.4559 11.0754 12.4809 11.1825 12.5274C11.2896 12.574 11.3864 12.6412 11.4675 12.7252C11.5486 12.8091 11.6123 12.9083 11.6551 13.0169V13.0169Z" fill="#131313"/>
<path fill-rule="evenodd" clip-rule="evenodd" d="M10.3794 14.7849C10.2613 15.1389 10.0348 15.4467 9.73203 15.6648C9.42923 15.8829 9.06548 16.0001 8.69232 16H7.30743C6.93427 16.0001 6.57052 15.8829 6.26772 15.6648C5.96492 15.4467 5.73843 15.1389 5.62032 14.7849L5.37854 14.0587C5.34166 13.9479 5.32695 13.8309 5.33526 13.7145C5.34358 13.598 5.37475 13.4843 5.427 13.3799C5.47925 13.2755 5.55155 13.1824 5.63978 13.1059C5.72801 13.0294 5.83043 12.9711 5.94121 12.9342C6.05199 12.8973 6.16895 12.8826 6.28541 12.8909C6.40187 12.8992 6.51555 12.9304 6.61997 12.9827C6.72438 13.0349 6.81748 13.1072 6.89395 13.1954C6.97042 13.2837 7.02877 13.3861 7.06566 13.4969L7.30654 14.2222H8.69143L8.93321 13.4969C9.00771 13.2732 9.16803 13.0882 9.3789 12.9827C9.58978 12.8771 9.83393 12.8597 10.0577 12.9342C10.2814 13.0087 10.4663 13.169 10.5719 13.3799C10.6774 13.5908 10.6948 13.8349 10.6203 14.0587L10.3785 14.7849H10.3794Z" fill="#131313"/>
<path fill-rule="evenodd" clip-rule="evenodd" d="M7.0373 14.1325C6.99073 14.2395 6.92353 14.3363 6.83953 14.4174C6.75554 14.4985 6.6564 14.5622 6.54778 14.605C6.43915 14.6477 6.32317 14.6687 6.20645 14.6666C6.08973 14.6645 5.97456 14.6395 5.86752 14.5929L4.8453 14.1485C4.73826 14.1019 4.64144 14.0347 4.56037 13.9507C4.47929 13.8667 4.41556 13.7676 4.37281 13.6589C4.28646 13.4396 4.29079 13.1949 4.38485 12.9787C4.47892 12.7625 4.655 12.5925 4.87438 12.5062C5.09376 12.4198 5.33845 12.4242 5.55463 12.5182L6.57685 12.9627C6.6839 13.0093 6.78072 13.0765 6.8618 13.1605C6.94287 13.2444 7.0066 13.3436 7.04936 13.4522C7.09212 13.5608 7.11306 13.6768 7.11099 13.7935C7.10892 13.9103 7.08388 14.0254 7.0373 14.1325V14.1325Z" fill="#131313"/>
<path fill-rule="evenodd" clip-rule="evenodd" d="M4.88542 14.48C4.55162 14.6469 4.17375 14.7045 3.80538 14.6447C3.437 14.5849 3.0968 14.4106 2.83297 14.1467L1.85342 13.1671C1.58946 12.9033 1.41522 12.5631 1.35539 12.1947C1.29556 11.8263 1.35318 11.4485 1.52008 11.1147L1.86231 10.4302C1.91454 10.3258 1.98683 10.2327 2.07505 10.1562C2.16327 10.0797 2.26569 10.0214 2.37646 9.9845C2.48723 9.9476 2.60418 9.93288 2.72064 9.94119C2.8371 9.94949 2.95078 9.98065 3.0552 10.0329C3.15961 10.0851 3.25271 10.1574 3.32919 10.2456C3.40567 10.3338 3.46402 10.4363 3.50092 10.547C3.53781 10.6578 3.55253 10.7748 3.54423 10.8912C3.53592 11.0077 3.50477 11.1214 3.45253 11.2258L3.11031 11.9102L4.08986 12.8889L4.77431 12.5467C4.87883 12.4934 4.99287 12.4614 5.10984 12.4524C5.22681 12.4434 5.3444 12.4577 5.45583 12.4944C5.56726 12.5311 5.67032 12.5894 5.75908 12.6662C5.84784 12.7429 5.92053 12.8364 5.97297 12.9413C6.02541 13.0463 6.05656 13.1606 6.06462 13.2776C6.07269 13.3946 6.0575 13.5121 6.01995 13.6232C5.98239 13.7344 5.92321 13.837 5.8458 13.9251C5.7684 14.0133 5.67432 14.0853 5.56897 14.1369L4.88453 14.4791L4.88542 14.48Z" fill="#131313"/>
<path fill-rule="evenodd" clip-rule="evenodd" d="M2.98312 11.6551C2.76387 11.7416 2.51926 11.7374 2.30306 11.6436C2.08687 11.5497 1.91679 11.3739 1.83023 11.1547L1.42134 10.1173C1.33494 9.89796 1.33922 9.65326 1.43324 9.43705C1.52726 9.22084 1.70331 9.05083 1.92268 8.96443C2.14204 8.87803 2.38674 8.88231 2.60295 8.97633C2.81916 9.07035 2.98916 9.2464 3.07557 9.46577L3.48445 10.5022C3.52724 10.6108 3.54822 10.7268 3.54618 10.8435C3.54415 10.9603 3.51914 11.0754 3.47258 11.1825C3.42603 11.2896 3.35884 11.3864 3.27486 11.4675C3.19088 11.5486 3.09174 11.6123 2.98312 11.6551V11.6551Z" fill="#131313"/>
<path fill-rule="evenodd" clip-rule="evenodd" d="M1.216 10.3796C0.861856 10.2616 0.553824 10.0352 0.335569 9.73236C0.117314 9.42954 -8.98322e-05 9.06571 5.15723e-08 8.69244V7.30756C-8.98322e-05 6.93428 0.117314 6.57046 0.335569 6.26764C0.553824 5.96483 0.861856 5.7384 1.216 5.62044L1.94133 5.37867C2.05211 5.34178 2.16907 5.32707 2.28553 5.33539C2.40199 5.3437 2.51567 5.37487 2.62009 5.42712C2.7245 5.47937 2.8176 5.55167 2.89407 5.6399C2.97055 5.72813 3.02889 5.83056 3.06578 5.94133C3.10266 6.05211 3.11737 6.16907 3.10906 6.28553C3.10074 6.40199 3.06957 6.51567 3.01732 6.62009C2.96508 6.7245 2.89277 6.8176 2.80454 6.89407C2.71632 6.97055 2.61389 7.02889 2.50311 7.06578L1.77778 7.30667V8.69156L2.50311 8.93333C2.72684 9.00783 2.9118 9.16815 3.01732 9.37902C3.12285 9.5899 3.14027 9.83405 3.06578 10.0578C2.99128 10.2815 2.83096 10.4665 2.62009 10.572C2.40921 10.6775 2.16506 10.6949 1.94133 10.6204L1.216 10.3787V10.3796Z" fill="#131313"/>
<path fill-rule="evenodd" clip-rule="evenodd" d="M1.86765 7.03733C1.7606 6.99076 1.66378 6.92356 1.58271 6.83956C1.50163 6.75557 1.4379 6.65643 1.39514 6.54781C1.35239 6.43918 1.33144 6.3232 1.33351 6.20648C1.33558 6.08976 1.36062 5.97459 1.4072 5.86755L1.85165 4.84533C1.94571 4.62915 2.1218 4.45919 2.34118 4.37284C2.56055 4.28649 2.80525 4.29082 3.02143 4.38488C3.23761 4.47895 3.40757 4.65504 3.49392 4.87441C3.58027 5.09379 3.57593 5.33848 3.48187 5.55466L3.03743 6.57688C2.99086 6.68393 2.92366 6.78075 2.83966 6.86183C2.75567 6.9429 2.65653 7.00663 2.54791 7.04939C2.43928 7.09215 2.3233 7.11309 2.20658 7.11102C2.08986 7.10895 1.97469 7.08391 1.86765 7.03733V7.03733Z" fill="#131313"/>
<path fill-rule="evenodd" clip-rule="evenodd" d="M1.52008 4.88533C1.35318 4.55152 1.29556 4.17366 1.35539 3.80529C1.41522 3.43691 1.58946 3.09671 1.85342 2.83288L2.83297 1.85333C3.0968 1.58937 3.437 1.41513 3.80538 1.3553C4.17375 1.29547 4.55162 1.35309 4.88542 1.51999L5.56986 1.86221C5.67428 1.91445 5.76738 1.98674 5.84386 2.07496C5.92034 2.16318 5.97869 2.2656 6.01558 2.37637C6.05248 2.48714 6.0672 2.60409 6.05889 2.72055C6.05059 2.83701 6.01943 2.95069 5.9672 3.0551C5.91496 3.15952 5.84267 3.25262 5.75445 3.3291C5.66623 3.40558 5.56381 3.46393 5.45304 3.50083C5.34227 3.53772 5.22532 3.55244 5.10886 3.54414C4.9924 3.53583 4.87872 3.50467 4.77431 3.45244L4.08986 3.11021L3.1112 4.08977L3.45342 4.77421C3.55663 4.98483 3.5724 5.22771 3.49732 5.44991C3.42223 5.67212 3.26236 5.85564 3.05255 5.96049C2.84275 6.06533 2.6 6.083 2.37722 6.00965C2.15444 5.9363 1.96967 5.77787 1.8632 5.56888L1.52097 4.88444L1.52008 4.88533Z" fill="#131313"/>
<path fill-rule="evenodd" clip-rule="evenodd" d="M4.34476 2.98312C4.25852 2.76408 4.26268 2.51979 4.35633 2.30382C4.44999 2.08785 4.62548 1.91785 4.84432 1.83112L5.88165 1.42223C5.99027 1.37945 6.10625 1.35848 6.22297 1.36052C6.33969 1.36256 6.45487 1.38757 6.56192 1.43412C6.66898 1.48068 6.76582 1.54786 6.84691 1.63184C6.928 1.71582 6.99176 1.81494 7.03454 1.92356C7.07732 2.03218 7.09829 2.14816 7.09625 2.26488C7.09421 2.3816 7.0692 2.49678 7.02264 2.60383C6.97609 2.71089 6.90891 2.80773 6.82493 2.88882C6.74095 2.96991 6.64182 3.03367 6.53321 3.07645L5.49587 3.48534C5.27662 3.57148 5.03213 3.56707 4.81613 3.47307C4.60012 3.37906 4.43027 3.20316 4.34387 2.98401L4.34476 2.98312Z" fill="#131313"/>
<path fill-rule="evenodd" clip-rule="evenodd" d="M5.62032 1.216C5.73828 0.861856 5.96471 0.553824 6.26752 0.335569C6.57033 0.117314 6.93416 -8.98322e-05 7.30743 5.15723e-08H8.69232C9.06559 -8.98322e-05 9.42942 0.117314 9.73223 0.335569C10.035 0.553824 10.2615 0.861856 10.3794 1.216L10.6212 1.94133C10.6581 2.05211 10.6728 2.16907 10.6645 2.28553C10.6562 2.40199 10.625 2.51567 10.5728 2.62009C10.5205 2.7245 10.4482 2.8176 10.36 2.89407C10.2717 2.97055 10.1693 3.02889 10.0585 3.06578C9.94777 3.10266 9.83081 3.11737 9.71435 3.10906C9.59789 3.10074 9.48421 3.06957 9.37979 3.01732C9.16892 2.9118 9.0086 2.72684 8.9341 2.50311L8.69321 1.77778H7.30743L7.06566 2.50311C6.99116 2.72684 6.83084 2.9118 6.61997 3.01732C6.40909 3.12285 6.16494 3.14027 5.94121 3.06578C5.71749 2.99128 5.53252 2.83096 5.427 2.62009C5.32148 2.40921 5.30405 2.16506 5.37855 1.94133L5.62032 1.216Z" fill="#131313"/>
<path fill-rule="evenodd" clip-rule="evenodd" d="M8.96275 1.86756C9.00932 1.76051 9.07652 1.66369 9.16051 1.58262C9.2445 1.50154 9.34364 1.43781 9.45227 1.39505C9.56089 1.35229 9.67688 1.33135 9.7936 1.33342C9.91031 1.33549 10.0255 1.36053 10.1325 1.40711L11.1547 1.85156C11.3709 1.94562 11.5409 2.12171 11.6272 2.34109C11.7136 2.56046 11.7093 2.80515 11.6152 3.02134C11.5211 3.23752 11.345 3.40748 11.1257 3.49383C10.9063 3.58018 10.6616 3.57584 10.4454 3.48178L9.42319 3.03733C9.31615 2.99076 9.21932 2.92356 9.13825 2.83957C9.05718 2.75558 8.99344 2.65644 8.95068 2.54781C8.90793 2.43919 8.88699 2.3232 8.88906 2.20649C8.89113 2.08977 8.91617 1.9746 8.96275 1.86756V1.86756Z" fill="#131313"/>
</svg>
