<svg width="15" height="15" viewBox="0 0 15 15" fill="none" xmlns="http://www.w3.org/2000/svg">
<path d="M4.96223 13.4662C4.78648 13.2904 4.68774 13.052 4.68774 12.8034C4.68774 12.5548 4.78648 12.3164 4.96223 12.1406L9.60286 7.49999L4.96223 2.85936C4.79146 2.68255 4.69696 2.44573 4.6991 2.19992C4.70124 1.95411 4.79983 1.71898 4.97365 1.54515C5.14747 1.37133 5.38261 1.27274 5.62842 1.2706C5.87423 1.26847 6.11104 1.36296 6.28786 1.53374L11.5913 6.83717C11.767 7.01298 11.8658 7.25139 11.8658 7.49999C11.8658 7.74858 11.767 7.98699 11.5913 8.1628L6.28786 13.4662C6.11205 13.642 5.87364 13.7407 5.62504 13.7407C5.37645 13.7407 5.13804 13.642 4.96223 13.4662Z" fill="#F2F2F2"/>
</svg>
