<svg width="20" height="19" viewBox="0 0 20 19" fill="none" xmlns="http://www.w3.org/2000/svg">
<path fill-rule="evenodd" clip-rule="evenodd" d="M10.0002 0.333328C4.93766 0.333328 0.833496 4.43749 0.833496 9.49999C0.833496 14.5625 4.93766 18.6667 10.0002 18.6667C15.0627 18.6667 19.1668 14.5625 19.1668 9.49999C19.1668 4.43749 15.0627 0.333328 10.0002 0.333328ZM6.66683 8.66666C6.44582 8.66666 6.23385 8.75446 6.07757 8.91074C5.92129 9.06702 5.8335 9.27898 5.8335 9.49999C5.8335 9.72101 5.92129 9.93297 6.07757 10.0892C6.23385 10.2455 6.44582 10.3333 6.66683 10.3333H13.3335C13.5545 10.3333 13.7665 10.2455 13.9228 10.0892C14.079 9.93297 14.1668 9.72101 14.1668 9.49999C14.1668 9.27898 14.079 9.06702 13.9228 8.91074C13.7665 8.75446 13.5545 8.66666 13.3335 8.66666H6.66683Z" fill="#DC1E1E"/>
</svg>
