<svg width="16" height="19" viewBox="0 0 16 19" fill="none" xmlns="http://www.w3.org/2000/svg">
<path d="M9.14286 2.28571C9.14286 1.65464 9.65357 1.14285 10.2857 1.14285H14.825C15.0107 1.14285 15.1607 1.17357 15.2929 1.22964C15.3964 1.285 15.5536 1.36678 15.6643 1.475C15.6643 1.47678 15.6643 1.47857 15.6679 1.48C15.8893 1.70214 15.9679 1.99214 16 2.28214V6.85714C16 7.48928 15.4893 8 14.8571 8C14.225 8 13.7143 7.48928 13.7143 6.85714V5.04642L7.66429 11.0929C7.21786 11.5393 6.49643 11.5393 6.05 11.0929C5.60357 10.6464 5.60357 9.925 6.05 9.47857L12.0964 3.42857H10.2857C9.65357 3.42857 9.14286 2.91678 9.14286 2.28571ZM0 4.57142C0 3.30892 1.02321 2.28571 2.28571 2.28571H5.71429C6.34643 2.28571 6.85714 2.7975 6.85714 3.42857C6.85714 4.06071 6.34643 4.57142 5.71429 4.57142H2.28571V14.8571H12.5714V11.4286C12.5714 10.7964 13.0821 10.2857 13.7143 10.2857C14.3464 10.2857 14.8571 10.7964 14.8571 11.4286V14.8571C14.8571 16.1179 13.8321 17.1429 12.5714 17.1429H2.28571C1.02321 17.1429 0 16.1179 0 14.8571V4.57142Z" fill="#131313"/>
</svg>
