<svg width="20" height="21" viewBox="0 0 20 21" fill="none" xmlns="http://www.w3.org/2000/svg">
<path d="M10 0.875C4.68477 0.875 0.375 5.18477 0.375 10.5C0.375 15.8152 4.68477 20.125 10 20.125C15.3152 20.125 19.625 15.8152 19.625 10.5C19.625 5.18477 15.3152 0.875 10 0.875ZM14.125 11.0156C14.125 11.1102 14.0477 11.1875 13.9531 11.1875H10.6875V14.4531C10.6875 14.5477 10.6102 14.625 10.5156 14.625H9.48438C9.38984 14.625 9.3125 14.5477 9.3125 14.4531V11.1875H6.04688C5.95234 11.1875 5.875 11.1102 5.875 11.0156V9.98438C5.875 9.88984 5.95234 9.8125 6.04688 9.8125H9.3125V6.54688C9.3125 6.45234 9.38984 6.375 9.48438 6.375H10.5156C10.6102 6.375 10.6875 6.45234 10.6875 6.54688V9.8125H13.9531C14.0477 9.8125 14.125 9.88984 14.125 9.98438V11.0156Z" fill="#DC1E1E"/>
</svg>
