<svg width="25" height="25" viewBox="0 0 25 25" fill="none" xmlns="http://www.w3.org/2000/svg">
<path d="M22.5342 6.92381C22.2069 6.16609 21.7351 5.47945 21.145 4.90233C20.5545 4.32349 19.8583 3.86349 19.0942 3.54735C18.3019 3.21823 17.4522 3.04977 16.5942 3.05174C15.3906 3.05174 14.2163 3.38133 13.1958 4.00389C12.9517 4.15282 12.7197 4.31639 12.5 4.49462C12.2803 4.31639 12.0483 4.15282 11.8042 4.00389C10.7837 3.38133 9.60937 3.05174 8.40576 3.05174C7.53906 3.05174 6.69922 3.21776 5.90576 3.54735C5.13916 3.86473 4.44824 4.32128 3.85498 4.90233C3.26415 5.4788 2.79218 6.1656 2.46582 6.92381C2.12646 7.71239 1.95312 8.54979 1.95312 9.41161C1.95312 10.2246 2.11914 11.0718 2.44873 11.9336C2.72461 12.6538 3.12012 13.4009 3.62549 14.1553C4.42627 15.3491 5.52734 16.5942 6.89453 17.8564C9.16016 19.9487 11.4038 21.394 11.499 21.4526L12.0776 21.8237C12.334 21.9873 12.6636 21.9873 12.9199 21.8237L13.4985 21.4526C13.5938 21.3916 15.835 19.9487 18.103 17.8564C19.4702 16.5942 20.5713 15.3491 21.3721 14.1553C21.8774 13.4009 22.2754 12.6538 22.5488 11.9336C22.8784 11.0718 23.0444 10.2246 23.0444 9.41161C23.0469 8.54979 22.8735 7.71239 22.5342 6.92381ZM12.5 19.8926C12.5 19.8926 3.80859 14.3237 3.80859 9.41161C3.80859 6.92381 5.8667 4.90721 8.40576 4.90721C10.1904 4.90721 11.7383 5.90331 12.5 7.35839C13.2617 5.90331 14.8096 4.90721 16.5942 4.90721C19.1333 4.90721 21.1914 6.92381 21.1914 9.41161C21.1914 14.3237 12.5 19.8926 12.5 19.8926Z" fill="#3CA64A"/>
</svg>
