<svg width="25" height="22" viewBox="0 0 25 22" fill="none" xmlns="http://www.w3.org/2000/svg">
<path d="M22.7812 9.1125C23.2005 9.1125 23.5584 9.26082 23.8551 9.55745C24.1517 9.85408 24.3 10.212 24.3 10.6313C24.3 11.0505 24.1517 11.4084 23.8551 11.7051C23.5584 12.0017 23.2005 12.15 22.7812 12.15H22.6033L21.2388 20.0048C21.1755 20.3687 21.0015 20.6692 20.7167 20.9065C20.4319 21.1438 20.1076 21.2625 19.7438 21.2625H4.55625C4.19238 21.2625 3.86807 21.1438 3.5833 20.9065C3.29854 20.6692 3.12451 20.3687 3.06123 20.0048L1.69673 12.15H1.51875C1.09951 12.15 0.741577 12.0017 0.444946 11.7051C0.148315 11.4084 0 11.0505 0 10.6313C0 10.212 0.148315 9.85408 0.444946 9.55745C0.741577 9.26082 1.09951 9.1125 1.51875 9.1125H22.7812ZM5.75464 18.6047C5.9603 18.5889 6.13235 18.4999 6.27078 18.3377C6.4092 18.1756 6.47051 17.9916 6.45469 17.786L6.075 12.85C6.05918 12.6444 5.97019 12.4723 5.80803 12.3339C5.64587 12.1955 5.46196 12.1342 5.2563 12.15C5.05063 12.1658 4.87859 12.2548 4.74016 12.417C4.60173 12.5791 4.54043 12.763 4.55625 12.9687L4.93594 17.9046C4.95176 18.1024 5.03284 18.2685 5.17917 18.403C5.32551 18.5375 5.49756 18.6047 5.69531 18.6047H5.75464ZM10.6313 17.8453V12.9094C10.6313 12.7037 10.5561 12.5257 10.4058 12.3754C10.2555 12.2251 10.0775 12.15 9.87188 12.15C9.66621 12.15 9.48823 12.2251 9.33794 12.3754C9.18765 12.5257 9.1125 12.7037 9.1125 12.9094V17.8453C9.1125 18.051 9.18765 18.229 9.33794 18.3792C9.48823 18.5295 9.66621 18.6047 9.87188 18.6047C10.0775 18.6047 10.2555 18.5295 10.4058 18.3792C10.5561 18.229 10.6313 18.051 10.6313 17.8453ZM15.1875 17.8453V12.9094C15.1875 12.7037 15.1124 12.5257 14.9621 12.3754C14.8118 12.2251 14.6338 12.15 14.4281 12.15C14.2225 12.15 14.0445 12.2251 13.8942 12.3754C13.7439 12.5257 13.6688 12.7037 13.6688 12.9094V17.8453C13.6688 18.051 13.7439 18.229 13.8942 18.3792C14.0445 18.5295 14.2225 18.6047 14.4281 18.6047C14.6338 18.6047 14.8118 18.5295 14.9621 18.3792C15.1124 18.229 15.1875 18.051 15.1875 17.8453ZM19.3641 17.9046L19.7438 12.9687C19.7596 12.763 19.6983 12.5791 19.5598 12.417C19.4214 12.2548 19.2494 12.1658 19.0437 12.15C18.838 12.1342 18.6541 12.1955 18.492 12.3339C18.3298 12.4723 18.2408 12.6444 18.225 12.85L17.8453 17.786C17.8295 17.9916 17.8908 18.1756 18.0292 18.3377C18.1677 18.4999 18.3397 18.5889 18.5454 18.6047H18.6047C18.8024 18.6047 18.9745 18.5375 19.1208 18.403C19.2672 18.2685 19.3482 18.1024 19.3641 17.9046ZM5.64785 3.46465L4.54438 8.35312H2.97817L4.17656 3.12056C4.32686 2.42446 4.67886 1.85691 5.23257 1.4179C5.78628 0.978882 6.41909 0.759375 7.13101 0.759375H9.1125C9.1125 0.553711 9.18765 0.375732 9.33794 0.225439C9.48823 0.0751465 9.66621 0 9.87188 0H14.4281C14.6338 0 14.8118 0.0751465 14.9621 0.225439C15.1124 0.375732 15.1875 0.553711 15.1875 0.759375H17.169C17.8809 0.759375 18.5137 0.978882 19.0674 1.4179C19.6211 1.85691 19.9731 2.42446 20.1234 3.12056L21.3218 8.35312H19.7556L18.6521 3.46465C18.5651 3.1166 18.3852 2.83184 18.1123 2.61035C17.8394 2.38887 17.525 2.27813 17.169 2.27813H15.1875C15.1875 2.48379 15.1124 2.66177 14.9621 2.81206C14.8118 2.96235 14.6338 3.0375 14.4281 3.0375H9.87188C9.66621 3.0375 9.48823 2.96235 9.33794 2.81206C9.18765 2.66177 9.1125 2.48379 9.1125 2.27813H7.13101C6.77505 2.27813 6.46062 2.38887 6.18772 2.61035C5.91482 2.83184 5.73486 3.1166 5.64785 3.46465Z" fill="#3CA64A"/>
</svg>
