<svg width="15" height="15" viewBox="0 0 15 15" fill="none" xmlns="http://www.w3.org/2000/svg">
<path d="M10.0378 1.53376C10.2135 1.70957 10.3123 1.94799 10.3123 2.19658C10.3123 2.44517 10.2135 2.68358 10.0378 2.85939L5.39714 7.50001L10.0378 12.1406C10.2085 12.3175 10.303 12.5543 10.3009 12.8001C10.2988 13.0459 10.2002 13.281 10.0263 13.4548C9.85253 13.6287 9.61739 13.7273 9.37158 13.7294C9.12577 13.7315 8.88896 13.637 8.71214 13.4663L3.40871 8.16283C3.23295 7.98702 3.13422 7.74861 3.13422 7.50001C3.13422 7.25142 3.23295 7.01301 3.40871 6.8372L8.71214 1.53376C8.88795 1.35801 9.12636 1.25928 9.37496 1.25928C9.62355 1.25928 9.86196 1.35801 10.0378 1.53376Z" fill="#F2F2F2"/>
</svg>
