<svg width="17" height="18" viewBox="0 0 19 19" fill="none" xmlns="http://www.w3.org/2000/svg">
<path d="M17.4167 18.875L10.8542 12.3125C10.3333 12.7292 9.73437 13.059 9.05729 13.3021C8.38021 13.5451 7.65972 13.6667 6.89583 13.6667C5.00347 13.6667 3.40208 13.0115 2.09167 11.701C0.780556 10.3899 0.125 8.78819 0.125 6.89583C0.125 5.00347 0.780556 3.40174 2.09167 2.09063C3.40208 0.780208 5.00347 0.125 6.89583 0.125C8.78819 0.125 10.3899 0.780208 11.701 2.09063C13.0115 3.40174 13.6667 5.00347 13.6667 6.89583C13.6667 7.65972 13.5451 8.38021 13.3021 9.05729C13.059 9.73437 12.7292 10.3333 12.3125 10.8542L18.875 17.4167L17.4167 18.875ZM6.89583 11.5833C8.19792 11.5833 9.30486 11.1278 10.2167 10.2167C11.1278 9.30486 11.5833 8.19792 11.5833 6.89583C11.5833 5.59375 11.1278 4.4868 10.2167 3.575C9.30486 2.66389 8.19792 2.20833 6.89583 2.20833C5.59375 2.20833 4.4868 2.66389 3.575 3.575C2.66389 4.4868 2.20833 5.59375 2.20833 6.89583C2.20833 8.19792 2.66389 9.30486 3.575 10.2167C4.4868 11.1278 5.59375 11.5833 6.89583 11.5833Z" fill="#444444"/>
</svg>
