<svg width="25" height="22" viewBox="0 0 25 22" fill="none" xmlns="http://www.w3.org/2000/svg">
<path d="M22.7828 9.80147C23.202 9.80147 23.5599 9.94978 23.8566 10.2464C24.1532 10.543 24.3015 10.901 24.3015 11.3202C24.3015 11.7395 24.1532 12.0974 23.8566 12.394C23.5599 12.6906 23.202 12.839 22.7828 12.839H22.6048L21.2403 20.6938C21.177 21.0576 21.003 21.3582 20.7182 21.5955C20.4335 21.8328 20.1091 21.9515 19.7453 21.9515H4.55778C4.19391 21.9515 3.86959 21.8328 3.58483 21.5955C3.30006 21.3582 3.12604 21.0576 3.06276 20.6938L1.69825 12.839H1.52028C1.10104 12.839 0.743103 12.6906 0.446472 12.394C0.149841 12.0974 0.00152588 11.7395 0.00152588 11.3202C0.00152588 10.901 0.149841 10.543 0.446472 10.2464C0.743103 9.94978 1.10104 9.80147 1.52028 9.80147H22.7828ZM5.75617 19.2937C5.96183 19.2778 6.13387 19.1888 6.2723 19.0267C6.41073 18.8645 6.47203 18.6806 6.45621 18.475L6.07653 13.539C6.06071 13.3334 5.97172 13.1613 5.80956 13.0229C5.6474 12.8844 5.46349 12.8231 5.25782 12.839C5.05216 12.8548 4.88011 12.9438 4.74169 13.1059C4.60326 13.2681 4.54196 13.452 4.55778 13.6577L4.93746 18.5936C4.95328 18.7914 5.03436 18.9575 5.1807 19.0919C5.32704 19.2264 5.49908 19.2937 5.69684 19.2937H5.75617ZM10.6328 18.5343V13.5983C10.6328 13.3927 10.5576 13.2147 10.4073 13.0644C10.257 12.9141 10.0791 12.839 9.8734 12.839C9.66774 12.839 9.48976 12.9141 9.33947 13.0644C9.18917 13.2147 9.11403 13.3927 9.11403 13.5983V18.5343C9.11403 18.7399 9.18917 18.9179 9.33947 19.0682C9.48976 19.2185 9.66774 19.2937 9.8734 19.2937C10.0791 19.2937 10.257 19.2185 10.4073 19.0682C10.5576 18.9179 10.6328 18.7399 10.6328 18.5343ZM15.189 18.5343V13.5983C15.189 13.3927 15.1139 13.2147 14.9636 13.0644C14.8133 12.9141 14.6353 12.839 14.4297 12.839C14.224 12.839 14.046 12.9141 13.8957 13.0644C13.7454 13.2147 13.6703 13.3927 13.6703 13.5983V18.5343C13.6703 18.7399 13.7454 18.9179 13.8957 19.0682C14.046 19.2185 14.224 19.2937 14.4297 19.2937C14.6353 19.2937 14.8133 19.2185 14.9636 19.0682C15.1139 18.9179 15.189 18.7399 15.189 18.5343ZM19.3656 18.5936L19.7453 13.6577C19.7611 13.452 19.6998 13.2681 19.5614 13.1059C19.4229 12.9438 19.2509 12.8548 19.0452 12.839C18.8396 12.8231 18.6557 12.8844 18.4935 13.0229C18.3313 13.1613 18.2423 13.3334 18.2265 13.539L17.8468 18.475C17.831 18.6806 17.8923 18.8645 18.0308 19.0267C18.1692 19.1888 18.3412 19.2778 18.5469 19.2937H18.6062C18.804 19.2937 18.976 19.2264 19.1224 19.0919C19.2687 18.9575 19.3498 18.7914 19.3656 18.5936ZM5.64938 4.15361L4.54591 9.04209H2.9797L4.17809 3.80952C4.32838 3.11343 4.68038 2.54587 5.23409 2.10686C5.78781 1.66785 6.42062 1.44834 7.13253 1.44834H9.11403C9.11403 1.24268 9.18917 1.0647 9.33947 0.914404C9.48976 0.764111 9.66774 0.688965 9.8734 0.688965H14.4297C14.6353 0.688965 14.8133 0.764111 14.9636 0.914404C15.1139 1.0647 15.189 1.24268 15.189 1.44834H17.1705C17.8824 1.44834 18.5152 1.66785 19.069 2.10686C19.6227 2.54587 19.9747 3.11343 20.125 3.80952L21.3234 9.04209H19.7571L18.6537 4.15361C18.5667 3.80557 18.3867 3.5208 18.1138 3.29932C17.8409 3.07783 17.5265 2.96709 17.1705 2.96709H15.189C15.189 3.17275 15.1139 3.35073 14.9636 3.50103C14.8133 3.65132 14.6353 3.72646 14.4297 3.72646H9.8734C9.66774 3.72646 9.48976 3.65132 9.33947 3.50103C9.18917 3.35073 9.11403 3.17275 9.11403 2.96709H7.13253C6.77658 2.96709 6.46215 3.07783 6.18925 3.29932C5.91635 3.5208 5.73639 3.80557 5.64938 4.15361Z" fill="#444444"/>
</svg>
