<svg width="35" height="47" viewBox="0 0 35 47" fill="none" xmlns="http://www.w3.org/2000/svg">
<path d="M18.4307 7.64307C20.6427 7.80582 22.5774 6.2294 22.7526 4.13007C22.9298 2.02015 21.2793 0.174096 19.0673 0.0113502C16.8524 -0.14947 14.9177 1.41732 14.7463 3.52724C14.5739 5.6362 16.2255 7.4784 18.4307 7.64307ZM35 38.5186L33.6634 26.9626H31.4947C31.5149 25.9997 31.512 25.8928 31.4456 25.3082C31.3811 24.7102 31.1914 24.273 30.8822 24.1353C31.1355 23.8657 31.304 23.5228 31.3368 23.1367C31.3596 22.8438 31.306 22.55 31.181 22.2841C31.0561 22.0182 30.8642 21.7893 30.6242 21.62L25.1043 17.9914L21.0404 10.3395C20.3673 9.33794 19.2271 8.52999 17.851 8.41443C16.7936 8.34124 15.821 8.69081 15.0343 9.21083L6.97015 15.453C6.7004 15.6639 6.50561 15.9559 6.4145 16.2859L4.5357 23.8464L4.39318 24.0708V24.0737H4.37777C4.06287 24.0737 3.7759 24.3741 3.66612 24.7718C3.56019 25.1618 3.43018 25.6771 3.43018 26.094V26.9626H1.33663L0 38.5186H5.40143L3.03343 42.3079C2.87935 42.6017 2.69831 43.0167 2.66653 43.4173C2.55001 44.8522 3.66708 46.0993 5.16453 46.2138C6.23442 46.2851 7.15504 45.7689 7.71454 44.9446L11.711 38.5186H12.2339L12.152 37.8088L13.2604 36.0254C13.3808 35.7866 13.7631 35.202 13.8055 34.9247L15.1594 29.0408L20.9384 35.0816L22.7526 44.1636C23.0425 45.2374 23.9689 46.1233 25.2015 46.2138C26.7009 46.3275 28.0135 45.2691 28.1329 43.8372L28.1165 43.3095L27.1689 38.5186H35ZM4.35177 25.99C4.40569 25.5345 4.57614 25.2755 4.8766 25.2755L4.98927 25.2736C5.29261 25.6405 5.74329 25.8918 6.26331 25.9342C6.54258 25.9535 6.82257 25.9086 7.0818 25.8029C7.34104 25.6972 7.57263 25.5336 7.75884 25.3246C7.85082 25.4089 7.91666 25.5179 7.94855 25.6385C8.02848 25.9149 8.0747 26.2317 8.0747 26.4927C8.0747 26.6487 8.067 26.9626 8.0564 26.9626H4.32384C4.31132 26.9626 4.31517 26.3434 4.35177 25.99ZM9.87068 26.9626H8.72954C8.75361 25.9997 8.74687 25.8928 8.68427 25.3082C8.63035 24.8075 8.48879 24.4203 8.26441 24.222L9.68868 18.0184L12.4977 15.8449L9.87068 26.9626ZM30.8235 26.9626H27.088C27.0726 26.9626 27.0774 26.3434 27.116 25.99C27.166 25.5345 27.3394 25.2755 27.6408 25.2755C28.0732 25.2755 28.4651 25.262 28.8128 25.2543C29.1623 25.2418 29.639 25.2244 30.239 25.2244C30.4691 25.2244 30.6251 25.3612 30.7118 25.6395C30.7946 25.9159 30.8389 26.2327 30.8389 26.4937L30.8235 26.9626ZM18.7418 24.7641L20.5522 17.1218L22.0747 19.9944C22.1951 20.1918 22.3376 20.3546 22.5254 20.5077L27.9634 24.0737H27.142C26.8271 24.0737 26.7115 24.3741 26.6027 24.7718C26.4997 25.1618 26.542 25.6771 26.542 26.094V26.9626H24.1037L23.7099 30.362L18.7418 24.7641Z" fill="#F2F2F2"/>
</svg>
