<svg width="20" height="20" viewBox="0 0 20 20" fill="none" xmlns="http://www.w3.org/2000/svg">
<path d="M9.99996 1.66666C7.79855 1.69473 5.69521 2.58172 4.13845 4.13848C2.58169 5.69524 1.6947 7.79858 1.66663 9.99999C1.67692 11.2824 1.98306 12.5452 2.56122 13.6899C3.13938 14.8347 3.97395 15.8305 4.99996 16.6V16.6667H5.08329C6.49428 17.7479 8.22233 18.3339 9.99996 18.3339C11.7776 18.3339 13.5056 17.7479 14.9166 16.6667H15V16.6C16.026 15.8305 16.8605 14.8347 17.4387 13.6899C18.0169 12.5452 18.323 11.2824 18.3333 9.99999C18.3052 7.79858 17.4182 5.69524 15.8615 4.13848C14.3047 2.58172 12.2014 1.69473 9.99996 1.66666V1.66666ZM6.72496 15.775C6.84661 15.2179 7.15508 14.7191 7.5992 14.3613C8.04331 14.0036 8.59637 13.8085 9.16663 13.8083H10.8333C11.4036 13.8085 11.9566 14.0036 12.4007 14.3613C12.8448 14.7191 13.1533 15.2179 13.275 15.775C12.2823 16.359 11.1516 16.667 9.99996 16.667C8.84829 16.667 7.71757 16.359 6.72496 15.775V15.775ZM14.675 14.7C14.358 13.9424 13.8242 13.2955 13.1407 12.8403C12.4572 12.3851 11.6545 12.1421 10.8333 12.1417H9.16663C8.34544 12.1421 7.54269 12.3851 6.85919 12.8403C6.17569 13.2955 5.64194 13.9424 5.32496 14.7C4.70051 14.0858 4.20321 13.3546 3.86147 12.5482C3.51973 11.7417 3.34025 10.8758 3.33329 9.99999C3.35491 8.23859 4.06423 6.55543 5.30981 5.30984C6.5554 4.06426 8.23856 3.35494 9.99996 3.33332C11.7614 3.35494 13.4445 4.06426 14.6901 5.30984C15.9357 6.55543 16.645 8.23859 16.6666 9.99999C16.6597 10.8758 16.4802 11.7417 16.1384 12.5482C15.7967 13.3546 15.2994 14.0858 14.675 14.7V14.7Z" fill="#131313"/>
<path d="M9.99999 5C9.55944 4.98974 9.12139 5.06894 8.71234 5.23282C8.30328 5.39671 7.93171 5.64186 7.62012 5.95346C7.30852 6.26506 7.06336 6.63662 6.89948 7.04568C6.7356 7.45474 6.65639 7.89279 6.66666 8.33333C6.65639 8.77388 6.7356 9.21193 6.89948 9.62099C7.06336 10.03 7.30852 10.4016 7.62012 10.7132C7.93171 11.0248 8.30328 11.27 8.71234 11.4338C9.12139 11.5977 9.55944 11.6769 9.99999 11.6667C10.4405 11.6769 10.8786 11.5977 11.2876 11.4338C11.6967 11.27 12.0683 11.0248 12.3799 10.7132C12.6915 10.4016 12.9366 10.03 13.1005 9.62099C13.2644 9.21193 13.3436 8.77388 13.3333 8.33333C13.3436 7.89279 13.2644 7.45474 13.1005 7.04568C12.9366 6.63662 12.6915 6.26506 12.3799 5.95346C12.0683 5.64186 11.6967 5.39671 11.2876 5.23282C10.8786 5.06894 10.4405 4.98974 9.99999 5V5ZM9.99999 10C9.77828 10.0107 9.55678 9.97494 9.34972 9.89498C9.14266 9.81501 8.95461 9.69262 8.79765 9.53567C8.6407 9.37871 8.51831 9.19066 8.43834 8.9836C8.35838 8.77654 8.3226 8.55504 8.33332 8.33333C8.3226 8.11162 8.35838 7.89012 8.43834 7.68306C8.51831 7.476 8.6407 7.28795 8.79765 7.131C8.95461 6.97404 9.14266 6.85165 9.34972 6.77169C9.55678 6.69172 9.77828 6.65595 9.99999 6.66667C10.2217 6.65595 10.4432 6.69172 10.6503 6.77169C10.8573 6.85165 11.0454 6.97404 11.2023 7.131C11.3593 7.28795 11.4817 7.476 11.5616 7.68306C11.6416 7.89012 11.6774 8.11162 11.6667 8.33333C11.6774 8.55504 11.6416 8.77654 11.5616 8.9836C11.4817 9.19066 11.3593 9.37871 11.2023 9.53567C11.0454 9.69262 10.8573 9.81501 10.6503 9.89498C10.4432 9.97494 10.2217 10.0107 9.99999 10Z" fill="#131313"/>
</svg>
