<svg width="23" height="21" viewBox="0 0 23 21" fill="none" xmlns="http://www.w3.org/2000/svg">
<path d="M22.3369 4.47772C21.9835 3.65938 21.4739 2.91781 20.8366 2.29452C20.1989 1.66937 19.447 1.17257 18.6218 0.83114C17.7661 0.475692 16.8483 0.293754 15.9218 0.295886C14.6219 0.295886 13.3536 0.651843 12.2515 1.32421C11.9878 1.48505 11.7373 1.66171 11.5 1.85419C11.2627 1.66171 11.0122 1.48505 10.7485 1.32421C9.64639 0.651843 8.37813 0.295886 7.07822 0.295886C6.14219 0.295886 5.23516 0.475183 4.37822 0.83114C3.55029 1.17391 2.8041 1.66698 2.16338 2.29452C1.52528 2.91711 1.01556 3.65885 0.663086 4.47772C0.296582 5.32938 0.109375 6.23378 0.109375 7.16454C0.109375 8.04257 0.288672 8.95751 0.644629 9.88827C0.942578 10.6661 1.36973 11.4729 1.91553 12.2877C2.78037 13.577 3.96953 14.9218 5.44609 16.285C7.89297 18.5446 10.3161 20.1056 10.4189 20.1688L11.0438 20.5696C11.3207 20.7463 11.6767 20.7463 11.9535 20.5696L12.5784 20.1688C12.6813 20.1029 15.1018 18.5446 17.5513 16.285C19.0278 14.9218 20.217 13.577 21.0818 12.2877C21.6276 11.4729 22.0574 10.6661 22.3527 9.88827C22.7087 8.95751 22.888 8.04257 22.888 7.16454C22.8906 6.23378 22.7034 5.32938 22.3369 4.47772ZM11.5 18.484C11.5 18.484 2.11328 12.4696 2.11328 7.16454C2.11328 4.47772 4.33604 2.29979 7.07822 2.29979C9.00566 2.29979 10.6773 3.37557 11.5 4.94706C12.3227 3.37557 13.9943 2.29979 15.9218 2.29979C18.664 2.29979 20.8867 4.47772 20.8867 7.16454C20.8867 12.4696 11.5 18.484 11.5 18.484Z" fill="#fff"/>
</svg>