<svg width="30" height="31" viewBox="0 0 30 31" fill="none" xmlns="http://www.w3.org/2000/svg">
<path fill-rule="evenodd" clip-rule="evenodd" d="M9.33125 1.8325C10.7975 1.765 11.265 1.75 15 1.75C18.735 1.75 19.2025 1.76625 20.6675 1.8325C22.1325 1.89875 23.1325 2.1325 24.0075 2.47125C24.9237 2.8175 25.755 3.35875 26.4425 4.05875C27.1425 4.745 27.6825 5.575 28.0275 6.4925C28.3675 7.3675 28.6 8.3675 28.6675 9.83C28.735 11.2987 28.75 11.7662 28.75 15.5C28.75 19.235 28.7337 19.7025 28.6675 21.1687C28.6012 22.6312 28.3675 23.6312 28.0275 24.5062C27.6825 25.4239 27.1416 26.2552 26.4425 26.9425C25.755 27.6425 24.9237 28.1825 24.0075 28.5275C23.1325 28.8675 22.1325 29.1 20.67 29.1675C19.2025 29.235 18.735 29.25 15 29.25C11.265 29.25 10.7975 29.2337 9.33125 29.1675C7.86875 29.1012 6.86875 28.8675 5.99375 28.5275C5.07615 28.1825 4.24478 27.6416 3.5575 26.9425C2.85797 26.2558 2.31664 25.4249 1.97125 24.5075C1.6325 23.6325 1.4 22.6325 1.3325 21.17C1.265 19.7012 1.25 19.2337 1.25 15.5C1.25 11.765 1.26625 11.2975 1.3325 9.8325C1.39875 8.3675 1.6325 7.3675 1.97125 6.4925C2.31715 5.5751 2.8589 4.74414 3.55875 4.0575C4.24505 3.35813 5.07559 2.8168 5.9925 2.47125C6.8675 2.1325 7.8675 1.9 9.33 1.8325H9.33125ZM20.5562 4.3075C19.1062 4.24125 18.6712 4.2275 15 4.2275C11.3287 4.2275 10.8937 4.24125 9.44375 4.3075C8.1025 4.36875 7.375 4.5925 6.89 4.78125C6.24875 5.03125 5.79 5.3275 5.30875 5.80875C4.85256 6.25256 4.50148 6.79285 4.28125 7.39C4.0925 7.875 3.86875 8.6025 3.8075 9.94375C3.74125 11.3937 3.7275 11.8287 3.7275 15.5C3.7275 19.1712 3.74125 19.6062 3.8075 21.0562C3.86875 22.3975 4.0925 23.125 4.28125 23.61C4.50125 24.2062 4.8525 24.7475 5.30875 25.1912C5.7525 25.6475 6.29375 25.9987 6.89 26.2187C7.375 26.4075 8.1025 26.6312 9.44375 26.6925C10.8937 26.7587 11.3275 26.7725 15 26.7725C18.6725 26.7725 19.1062 26.7587 20.5562 26.6925C21.8975 26.6312 22.625 26.4075 23.11 26.2187C23.7512 25.9687 24.21 25.6725 24.6912 25.1912C25.1475 24.7475 25.4987 24.2062 25.7187 23.61C25.9075 23.125 26.1312 22.3975 26.1925 21.0562C26.2587 19.6062 26.2725 19.1712 26.2725 15.5C26.2725 11.8287 26.2587 11.3937 26.1925 9.94375C26.1312 8.6025 25.9075 7.875 25.7187 7.39C25.4687 6.74875 25.1725 6.29 24.6912 5.80875C24.2474 5.35259 23.7071 5.00151 23.11 4.78125C22.625 4.5925 21.8975 4.36875 20.5562 4.3075ZM13.2437 19.7387C14.2246 20.147 15.3167 20.2021 16.3337 19.8946C17.3506 19.5872 18.2292 18.9361 18.8195 18.0528C19.4098 17.1695 19.6751 16.1086 19.5701 15.0514C19.465 13.9942 18.9963 13.0062 18.2437 12.2562C17.764 11.7768 17.184 11.4098 16.5454 11.1814C15.9068 10.9531 15.2255 10.8692 14.5506 10.9358C13.8757 11.0023 13.2239 11.2177 12.6423 11.5664C12.0606 11.9151 11.5634 12.3884 11.1866 12.9523C10.8098 13.5162 10.5627 14.1566 10.4631 14.8274C10.3636 15.4983 10.4139 16.1829 10.6107 16.8319C10.8074 17.4809 11.1456 18.0783 11.6009 18.5809C12.0562 19.0835 12.6173 19.479 13.2437 19.7387ZM10.0025 10.5025C10.6588 9.84622 11.4379 9.32563 12.2954 8.97045C13.1528 8.61527 14.0719 8.43247 15 8.43247C15.9281 8.43247 16.8472 8.61527 17.7046 8.97045C18.5621 9.32563 19.3412 9.84622 19.9975 10.5025C20.6538 11.1588 21.1744 11.9379 21.5295 12.7954C21.8847 13.6528 22.0675 14.5719 22.0675 15.5C22.0675 16.4281 21.8847 17.3472 21.5295 18.2046C21.1744 19.0621 20.6538 19.8412 19.9975 20.4975C18.6721 21.8229 16.8744 22.5675 15 22.5675C13.1256 22.5675 11.3279 21.8229 10.0025 20.4975C8.67708 19.1721 7.93247 17.3744 7.93247 15.5C7.93247 13.6256 8.67708 11.8279 10.0025 10.5025ZM23.635 9.485C23.7976 9.33159 23.9278 9.1471 24.0179 8.94247C24.1079 8.73783 24.156 8.51721 24.1593 8.29366C24.1625 8.07011 24.1209 7.84818 24.0369 7.64101C23.9528 7.43384 23.828 7.24564 23.6699 7.08755C23.5119 6.92946 23.3237 6.8047 23.1165 6.72065C22.9093 6.6366 22.6874 6.59497 22.4638 6.59823C22.2403 6.60149 22.0197 6.64957 21.815 6.73962C21.6104 6.82967 21.4259 6.95987 21.2725 7.1225C20.9741 7.43879 20.8108 7.8589 20.8171 8.29366C20.8235 8.72842 20.999 9.1436 21.3064 9.45105C21.6139 9.75851 22.0291 9.93404 22.4638 9.94037C22.8986 9.94671 23.3187 9.78336 23.635 9.485Z" fill="#FDFDFD"/>
</svg>
