<svg width="33" height="33" viewBox="0 0 33 33" fill="none" xmlns="http://www.w3.org/2000/svg">
<path d="M15.8345 2.76653C8.53323 3.11028 2.77335 9.14653 2.79535 16.4024C2.79897 18.5382 3.31032 20.6425 4.28723 22.5418L2.83248 29.5557C2.81473 29.6433 2.81937 29.7341 2.84599 29.8195C2.8726 29.9049 2.92033 29.9823 2.98475 30.0444C3.04917 30.1064 3.1282 30.1513 3.21454 30.1747C3.30089 30.1982 3.39175 30.1995 3.47873 30.1785L10.4005 28.5505C12.2337 29.4565 14.2463 29.9413 16.291 29.9695C23.7531 30.0837 29.9736 24.2014 30.206 16.797C30.4562 8.8564 23.8576 2.38565 15.8345 2.76515V2.76653ZM24.0941 23.8961C23.0965 24.8902 21.9126 25.6775 20.6101 26.2131C19.3077 26.7488 17.9124 27.0221 16.5041 27.0174C14.8472 27.0225 13.2119 26.6421 11.7274 25.9064L10.7635 25.4293L6.51885 26.4275L7.4126 22.1224L6.93685 21.1984C6.16561 19.7034 5.76567 18.0447 5.77085 16.3625C5.77085 13.5163 6.88735 10.8392 8.9141 8.82753C10.9342 6.82787 13.6616 5.70578 16.5041 5.7049C19.3724 5.7049 22.0674 6.81315 24.0941 8.82615C25.0926 9.81015 25.885 10.9833 26.425 12.2771C26.9649 13.5708 27.2415 14.9592 27.2387 16.3612C27.2387 19.1827 26.1044 21.9024 24.0941 23.8975V23.8961Z" fill="#FDFDFD"/>
<path d="M23.1577 19.3119L20.5026 18.5556C20.3313 18.5064 20.1499 18.5042 19.9774 18.5492C19.8049 18.5942 19.6477 18.6848 19.5222 18.8114L18.8732 19.4686C18.7389 19.6046 18.5675 19.6981 18.3805 19.7372C18.1934 19.7763 17.9989 19.7594 17.8214 19.6886C16.566 19.184 13.9232 16.852 13.2481 15.6846C13.1535 15.5197 13.1102 15.3303 13.1239 15.1407C13.1377 14.9511 13.2077 14.7699 13.3251 14.6204L13.8916 13.8916C14.0007 13.752 14.0697 13.5853 14.0912 13.4095C14.1128 13.2336 14.0861 13.0552 14.014 12.8934L12.8975 10.3854C12.8343 10.2452 12.7395 10.1216 12.6205 10.0242C12.5015 9.92687 12.3616 9.85845 12.2117 9.82434C12.0617 9.79023 11.906 9.79135 11.7566 9.82762C11.6071 9.86389 11.4682 9.93432 11.3506 10.0334C10.6095 10.6562 9.72948 11.6009 9.6236 12.65C9.43523 14.4966 10.2327 16.8245 13.2495 19.6212C16.7351 22.8511 19.5277 23.2787 21.3441 22.8401C22.3754 22.5926 23.2004 21.5985 23.7187 20.7859C23.8016 20.6568 23.8531 20.5101 23.869 20.3575C23.8848 20.2049 23.8647 20.0507 23.8101 19.9073C23.7555 19.764 23.6681 19.6354 23.5548 19.532C23.4415 19.4286 23.3055 19.3532 23.1577 19.3119Z" fill="#FDFDFD"/>
</svg>
