<svg width="27" height="27" viewBox="0 0 27 27" fill="none" xmlns="http://www.w3.org/2000/svg">
<path d="M14.19 11.55C13.53 11.385 12.87 11.055 12.375 10.56C11.88 10.395 11.715 9.9 11.715 9.57C11.715 9.24 11.88 8.745 12.21 8.58C12.705 8.25 13.2 7.92 13.695 8.085C14.685 8.085 15.51 8.58 16.005 9.24L17.49 7.26C16.995 6.765 16.5 6.435 16.005 6.105C15.51 5.775 14.85 5.61 14.19 5.61V3.3H12.21V5.61C11.385 5.775 10.56 6.27 9.9 6.93C9.24 7.755 8.745 8.745 8.91 9.735C8.91 10.725 9.24 11.715 9.9 12.375C10.725 13.2 11.88 13.695 12.87 14.19C13.365 14.355 14.025 14.685 14.52 15.015C14.85 15.345 15.015 15.84 15.015 16.335C15.015 16.83 14.85 17.325 14.52 17.82C14.025 18.315 13.365 18.48 12.87 18.48C12.21 18.48 11.385 18.315 10.89 17.82C10.395 17.49 9.9 16.995 9.57 16.5L7.92 18.315C8.415 18.975 8.91 19.47 9.57 19.965C10.395 20.46 11.385 20.955 12.375 20.955V23.1H14.19V20.625C15.18 20.46 16.005 19.965 16.665 19.305C17.49 18.48 17.985 17.16 17.985 16.005C17.985 15.015 17.655 13.86 16.83 13.2C16.005 12.375 15.18 11.88 14.19 11.55ZM13.2 0C5.94 0 0 5.94 0 13.2C0 20.46 5.94 26.4 13.2 26.4C20.46 26.4 26.4 20.46 26.4 13.2C26.4 5.94 20.46 0 13.2 0ZM13.2 24.585C6.93 24.585 1.815 19.47 1.815 13.2C1.815 6.93 6.93 1.815 13.2 1.815C19.47 1.815 24.585 6.93 24.585 13.2C24.585 19.47 19.47 24.585 13.2 24.585Z" fill="#131313"/>
</svg>
