<svg width="29" height="24" viewBox="0 0 29 24" fill="none" xmlns="http://www.w3.org/2000/svg">
<g clip-path="url(#clip0_6_98)">
<path d="M29.025 11.3625C28.4562 5.22292 22.9 0.833332 16.775 0.833332C16.4979 0.833332 16.2208 0.847915 15.9437 0.862499C-0.0833435 1.9125 -0.0833435 20.0833 -0.0833435 20.0833V21.25C-0.0833435 22.8542 1.22916 24.1667 2.83332 24.1667H17.4167C24.2271 24.1667 29.6812 18.3187 29.025 11.3625ZM4.67082 11.8583C5.50207 9.97708 6.53749 8.43125 7.79166 7.20625L13.0708 9.4375C13.9458 9.80208 14.5 10.6479 14.5 11.5958C14.5 12.8937 13.45 13.9437 12.1521 13.9437H3.88332C4.10207 13.2729 4.34999 12.5729 4.67082 11.8583V11.8583ZM23.8917 18.3917C23.0697 19.2912 22.0696 20.0099 20.9549 20.502C19.8401 20.9941 18.6352 21.2488 17.4167 21.25H2.83332V20.0833C2.83332 20.0542 2.84791 18.7417 3.18332 16.875H12.1521C15.0542 16.875 17.4167 14.5125 17.4167 11.6104C17.4167 9.49583 16.1479 7.58542 14.2083 6.76875L10.5625 5.22292C12.1667 4.39167 14.0187 3.91042 16.1333 3.77917C16.3521 3.75 16.5708 3.75 16.775 3.75C21.6021 3.75 25.7146 7.20625 26.1229 11.6396C26.3562 14.1479 25.5687 16.5396 23.8917 18.3917V18.3917Z" fill="#131313"/>
</g>
<defs>
<clipPath id="clip0_6_98">
<rect width="29" height="24" fill="white"/>
</clipPath>
</defs>
</svg>
