<svg width="25" height="33" viewBox="0 0 25 33" fill="none" xmlns="http://www.w3.org/2000/svg">
<path d="M17.3572 25.1499L17.61 30.2768L12.4241 26.6729L7.20918 30.2802L7.46218 25.1499H5.27201L4.89453 32.8061H7.40277L12.4212 29.3349L17.4165 32.8061H19.9248L19.5474 25.1499H17.3572ZM23.3068 9.48972L23.1568 6.20478L20.3872 4.43242L18.6145 1.66257L15.3295 1.51218L12.4097 0L9.48985 1.51252L6.20484 1.66291L4.43215 4.43242L1.66257 6.20478L1.51259 9.48972L0 12.4096L1.51259 15.3296L1.66298 18.6145L4.43215 20.3868L6.20457 23.1567L9.48958 23.3068L12.4097 24.8193L15.3295 23.3068L18.6145 23.1567L20.387 20.3868L23.1567 18.6147L23.3068 15.3299L24.8194 12.4099L23.3068 9.48972ZM21.1435 14.7499L21.023 17.3827L18.803 18.8032L17.3825 21.0232L14.7496 21.1435L12.4097 22.3557L10.0695 21.1435L7.43661 21.0232L6.0161 18.8032L3.79641 17.3827L3.67616 14.7499L2.4634 12.4096L3.67589 10.0698L3.79641 7.43661L6.0161 6.0161L7.43661 3.7962L10.0695 3.67589L12.4097 2.4636L14.7499 3.67582L17.3828 3.79613L18.8033 6.01604L21.023 7.43661L21.1432 10.0695L22.356 12.4096L21.1435 14.7499Z" fill="#131313"/>
</svg>
