<svg width="29" height="30" viewBox="0 0 29 30" fill="none" xmlns="http://www.w3.org/2000/svg">
<g clip-path="url(#clip0_6_111)">
<path d="M14.3219 9.5C13.2341 9.5 12.1708 9.82257 11.2663 10.4269C10.3618 11.0313 9.65688 11.8902 9.24059 12.8952C8.82431 13.9002 8.71539 15.0061 8.92761 16.073C9.13983 17.1399 9.66366 18.1199 10.4328 18.8891C11.202 19.6583 12.182 20.1821 13.2489 20.3943C14.3158 20.6065 15.4217 20.4976 16.4267 20.0813C17.4317 19.6651 18.2907 18.9601 18.895 18.0556C19.4994 17.1512 19.8219 16.0878 19.8219 15C19.8203 13.5418 19.2403 12.1438 18.2092 11.1127C17.1781 10.0816 15.7801 9.50165 14.3219 9.5V9.5ZM14.3219 18.5C13.6297 18.5 12.953 18.2947 12.3774 17.9101C11.8019 17.5256 11.3533 16.9789 11.0884 16.3394C10.8234 15.6999 10.7541 14.9961 10.8892 14.3172C11.0242 13.6382 11.3576 13.0146 11.8471 12.5251C12.3365 12.0356 12.9602 11.7023 13.6391 11.5673C14.318 11.4322 15.0218 11.5015 15.6613 11.7664C16.3009 12.0313 16.8475 12.4799 17.2321 13.0555C17.6167 13.6311 17.8219 14.3078 17.8219 15C17.8209 15.9279 17.4518 16.8176 16.7957 17.4737C16.1395 18.1299 15.2499 18.499 14.3219 18.5V18.5Z" fill="#131313"/>
<path d="M28.0438 19.1449L26.0581 17.5104C26.4101 15.8553 26.4101 14.1447 26.0581 12.4896L28.0438 10.8551C28.2728 10.6674 28.4275 10.4044 28.4802 10.1131C28.533 9.82173 28.4803 9.52114 28.3316 9.26512L26.2934 5.73493C26.146 5.47808 25.912 5.28209 25.6333 5.18211C25.3546 5.08212 25.0493 5.08468 24.7723 5.18931L22.3623 6.09225C21.1068 4.95792 19.6256 4.10186 18.016 3.58025L17.5931 1.04456C17.5453 0.75233 17.3949 0.486704 17.1689 0.29529C16.943 0.103877 16.6563 -0.000808678 16.3601 -3.01355e-06H12.2838C11.9876 -0.000798425 11.7009 0.103883 11.475 0.295281C11.249 0.48668 11.0987 0.752285 11.0508 1.0445L10.6281 3.58025C9.0185 4.10185 7.53736 4.95791 6.28188 6.09225L3.87157 5.18918C3.59456 5.08462 3.28938 5.08211 3.01069 5.1821C2.73201 5.28209 2.49803 5.47806 2.35069 5.73487L0.312504 9.26531C0.163855 9.52135 0.111213 9.82195 0.164007 10.1133C0.216801 10.4046 0.371582 10.6676 0.600629 10.8552L2.58607 12.4896C2.23407 14.1447 2.23407 15.8553 2.58607 17.5104L0.600442 19.1449C0.371431 19.3326 0.216693 19.5956 0.163934 19.8869C0.111175 20.1782 0.163842 20.4788 0.312504 20.7349L2.35075 24.2651C2.49811 24.5219 2.73212 24.7179 3.01085 24.8179C3.28957 24.9179 3.5948 24.9153 3.87182 24.8107L6.28194 23.9077C7.53742 25.0421 9.01857 25.8981 10.6282 26.4197L11.0508 28.9554C11.0987 29.2476 11.2491 29.5133 11.475 29.7047C11.7009 29.8961 11.9876 30.0008 12.2838 30H16.3601C16.6562 30.0008 16.943 29.8961 17.1689 29.7047C17.3949 29.5133 17.5452 29.2477 17.5931 28.9555L18.0158 26.4197C19.6254 25.8981 21.1066 25.0421 22.3621 23.9077L24.7723 24.8108C25.0493 24.9154 25.3545 24.9179 25.6332 24.8179C25.9119 24.7179 26.1458 24.5219 26.2932 24.2651L28.3313 20.7347C28.48 20.4787 28.5327 20.1782 28.48 19.8869C28.4273 19.5956 28.2727 19.3326 28.0438 19.1449V19.1449ZM24.879 22.7149L21.8722 21.5884L21.4169 22.0468C20.1642 23.3095 18.5973 24.215 16.8778 24.6701L16.2528 24.8349L15.725 28H12.9194L12.3918 24.8349L11.7668 24.6701C10.0473 24.215 8.48041 23.3095 7.22769 22.0468L6.77238 21.5884L3.76507 22.7149L2.3625 20.2851L4.83932 18.2461L4.67057 17.6228C4.20649 15.9051 4.20649 14.0949 4.67057 12.3772L4.83932 11.7539L2.3625 9.71493L3.76538 7.28506L6.77219 8.41156L7.2275 7.95319C8.48022 6.69053 10.0471 5.78496 11.7666 5.32987L12.3916 5.16512L12.9191 2H15.725L16.2526 5.16512L16.8776 5.32987C18.5971 5.78496 20.164 6.69053 21.4167 7.95319L21.872 8.41156L24.8788 7.28506L26.2818 9.71487L23.8049 11.7539L23.9737 12.3772C24.4378 14.0949 24.4378 15.9051 23.9737 17.6228L23.8049 18.2461L26.2818 20.2851L24.879 22.7149Z" fill="#131313"/>
</g>
<defs>
<clipPath id="clip0_6_111">
<rect width="29" height="30" fill="white"/>
</clipPath>
</defs>
</svg>
