<svg width="27" height="28" viewBox="0 0 27 28" fill="none" xmlns="http://www.w3.org/2000/svg">
<path d="M26.1624 4.19437C26.0837 4.1864 18.251 3.36464 14.5699 0.222866L14.3088 0H12.6912L12.43 0.222866C8.75545 3.35911 0.916138 4.1864 0.837931 4.19437L0 4.2788V5.12069C0 10.3073 0.852071 14.7478 2.53259 18.3189C4.74991 23.0307 8.35737 26.097 13.255 27.4327L13.5 27.4995L13.745 27.4327C18.6425 26.097 22.2501 23.0307 24.4674 18.3189C26.1479 14.7478 27 10.3073 27 5.12069V4.2788L26.1624 4.19437ZM25.1304 5.94192C25.1212 6.43805 25.1028 6.94016 25.0752 7.44828H14.431V2.43902C17.9178 4.74141 23.1027 5.65819 25.1304 5.94192ZM14.431 17.6897H22.7094C22.3194 18.5007 21.8647 19.2791 21.3498 20.0172H14.431V17.6897ZM14.431 15.8276V13.5H24.2011C23.9909 14.3455 23.7338 15.1786 23.4309 15.9954V15.8276H14.431ZM14.431 11.6379V9.31034H24.9272C24.8457 10.0847 24.7377 10.863 24.599 11.6379H14.431ZM1.86963 5.94192C3.89731 5.65819 9.08218 4.74141 12.569 2.4389V25.2673C4.07397 22.2511 2.00708 13.348 1.86963 5.94192ZM14.431 25.2673V21.8793H19.8047C18.3908 23.3166 16.6253 24.4883 14.431 25.2673Z" fill="#131313"/>
</svg>
