<svg width="27" height="27" viewBox="0 0 27 27" fill="none" xmlns="http://www.w3.org/2000/svg">
<path fill-rule="evenodd" clip-rule="evenodd" d="M13.5 25.1667C19.9436 25.1667 25.1667 19.9436 25.1667 13.5C25.1667 7.05635 19.9436 1.83333 13.5 1.83333C7.05635 1.83333 1.83333 7.05635 1.83333 13.5C1.83333 19.9436 7.05635 25.1667 13.5 25.1667ZM13.5 26.625C20.7486 26.625 26.625 20.7486 26.625 13.5C26.625 6.25135 20.7486 0.375 13.5 0.375C6.25135 0.375 0.375 6.25135 0.375 13.5C0.375 20.7486 6.25135 26.625 13.5 26.625Z" fill="#131313"/>
<path fill-rule="evenodd" clip-rule="evenodd" d="M11.521 11.4941C11.5991 11.7843 11.6275 12.1029 11.5327 12.364C11.5143 12.4145 11.4849 12.4604 11.4467 12.4982C11.4084 12.5361 11.3623 12.565 11.3115 12.5829C11.2608 12.6009 11.2067 12.6073 11.1532 12.6019C11.0996 12.5964 11.048 12.5791 11.0019 12.5514C10.8069 12.4285 10.6203 12.2928 10.4433 12.1452L10.3011 12.0285C10.1699 11.9221 10.043 11.8185 9.91177 11.7201C9.54573 11.4467 9.25552 11.3023 9.00396 11.3147C8.74 11.3278 8.42063 11.5123 8.01084 11.836C7.8949 11.9272 7.77094 12.0307 7.64261 12.1386C7.35969 12.3749 7.05344 12.6308 6.7625 12.8175C6.711 12.8507 6.65197 12.8703 6.59086 12.8746C6.52976 12.879 6.46855 12.8678 6.41289 12.8422C6.35722 12.8167 6.3089 12.7775 6.27239 12.7283C6.23587 12.6791 6.21234 12.6215 6.20396 12.5608C6.1675 12.2947 6.22292 11.9622 6.32719 11.637C6.44619 11.2705 6.61683 10.9228 6.83396 10.6045C7.28604 9.94312 8.01959 9.31969 9.00177 9.36052C9.94969 9.40062 10.6526 9.95625 11.0755 10.5615C11.2884 10.8648 11.4386 11.1907 11.5203 11.4941H11.521ZM15.4177 11.4941C15.339 11.7843 15.3105 12.1029 15.4053 12.364C15.4237 12.4146 15.4531 12.4606 15.4914 12.4985C15.5297 12.5365 15.5759 12.5654 15.6268 12.5834C15.6776 12.6013 15.7318 12.6077 15.7854 12.6022C15.839 12.5966 15.8908 12.5793 15.9369 12.5514C16.1279 12.4361 16.3168 12.2889 16.4947 12.1452L16.6376 12.0285C16.7689 11.9221 16.8957 11.8185 17.027 11.7201C17.3923 11.4467 17.6832 11.3023 17.9341 11.3147C18.1988 11.3278 18.5174 11.5123 18.9279 11.836C19.0431 11.9272 19.1671 12.0307 19.2961 12.1386C19.5783 12.3749 19.8846 12.6308 20.1763 12.8175C20.2277 12.8505 20.2867 12.87 20.3477 12.8742C20.4087 12.8785 20.4698 12.8673 20.5254 12.8417C20.5809 12.8162 20.6292 12.7771 20.6656 12.728C20.7021 12.6789 20.7256 12.6214 20.7341 12.5608C20.7705 12.2947 20.7151 11.9622 20.6116 11.637C20.4926 11.2705 20.3219 10.9228 20.1048 10.6045C19.6527 9.94312 18.9184 9.31969 17.9363 9.36052C16.9883 9.40062 16.2861 9.95625 15.8625 10.5615C15.6621 10.8447 15.5117 11.1601 15.4177 11.4941ZM13.5 22.9792C10.5556 22.9792 8.00354 20.7567 6.74938 17.5104C6.7371 17.4791 6.72495 17.4478 6.71292 17.4164C6.38771 16.5479 7.08334 15.6875 8.01157 15.6875H18.9892C19.9174 15.6875 20.6138 16.5479 20.2871 17.4164C20.2753 17.4478 20.2634 17.4791 20.2514 17.5104C18.9965 20.7567 16.4444 22.9792 13.5 22.9792ZM18.8054 17.1983C18.5867 17.7292 18.3322 18.2163 18.0507 18.6567H8.94927C8.69515 18.2578 8.47257 17.8397 8.28355 17.4061V17.1983H18.8054Z" fill="#131313"/>
<path fill-rule="evenodd" clip-rule="evenodd" d="M18.8025 20.115C18.968 19.8999 19.1263 19.6753 19.2765 19.442C19.6841 18.8046 20.0227 18.1255 20.2864 17.4164C20.5656 16.6748 20.0982 15.9383 19.3771 15.7393C19.2505 15.7046 19.1197 15.6872 18.9884 15.6875H8.01156C7.88024 15.6874 7.74951 15.7051 7.62292 15.74C7.29439 15.8286 7.01025 16.0356 6.82521 16.3211C6.72147 16.4819 6.65728 16.665 6.63789 16.8554C6.6185 17.0457 6.64446 17.238 6.71365 17.4164C6.78735 17.6102 6.86563 17.8023 6.94844 17.9924C7.17448 18.5065 7.43406 18.9914 7.72354 19.442C7.87375 19.6753 8.03198 19.8999 8.1975 20.1143C9.56396 21.8869 11.435 22.9792 13.5 22.9792C15.5643 22.9792 17.436 21.8869 18.8025 20.115ZM18.8054 17.1983C18.5973 17.7057 18.3447 18.1937 18.0507 18.6567H8.94927C8.69515 18.2578 8.47257 17.8397 8.28354 17.4062V17.1983H18.8054Z" fill="#131313"/>
</svg>
