<svg width="35" height="35" viewBox="0 0 35 35" fill="none" xmlns="http://www.w3.org/2000/svg">
<path d="M1.09375 10.9375H15.3125L16.4062 13.125H2.1875L1.09375 10.9375ZM2.55208 15.3125H16.7708L17.8646 17.5H3.64583L2.55208 15.3125ZM26.25 26.9792C27.4604 26.9792 28.4375 26.0021 28.4375 24.7917C28.4375 23.5812 27.4604 22.6042 26.25 22.6042C25.0396 22.6042 24.0625 23.5812 24.0625 24.7917C24.0625 26.0021 25.0396 26.9792 26.25 26.9792ZM28.4375 13.8542H24.7917V17.5H31.2958L28.4375 13.8542ZM11.6667 26.9792C12.8771 26.9792 13.8542 26.0021 13.8542 24.7917C13.8542 23.5812 12.8771 22.6042 11.6667 22.6042C10.4562 22.6042 9.47917 23.5812 9.47917 24.7917C9.47917 26.0021 10.4562 26.9792 11.6667 26.9792ZM29.1667 11.6667L33.5417 17.5V24.7917H30.625C30.625 27.2125 28.6708 29.1667 26.25 29.1667C23.8292 29.1667 21.875 27.2125 21.875 24.7917H16.0417C16.0417 27.2125 14.0729 29.1667 11.6667 29.1667C9.24583 29.1667 7.29167 27.2125 7.29167 24.7917H4.375V19.6875H7.29167V21.875H8.4C9.20208 20.9854 10.3687 20.4167 11.6667 20.4167C12.9646 20.4167 14.1312 20.9854 14.9333 21.875H21.875V8.75H4.375C4.375 7.13125 5.67292 5.83333 7.29167 5.83333H24.7917V11.6667H29.1667Z" fill="#131313"/>
</svg>
